<svg height="512" viewBox="0 0 128 128" width="512" xmlns="http://www.w3.org/2000/svg"><rect fill="#e678a0" height="84.382" rx="2.953" width="126" x="1" y="17.33"/><path d="m2.969 100.727v-78.471a2.954 2.954 0 0 1 2.953-2.956h120.094a3.023 3.023 0 0 1 .862.138 2.962 2.962 0 0 0 -2.83-2.109h-120.095a2.954 2.954 0 0 0 -2.953 2.956v78.471a2.946 2.946 0 0 0 2.107 2.818 2.926 2.926 0 0 1 -.138-.847z" fill="#fa8cb4"/><rect fill="#c8beff" height="68.618" rx="1.969" width="115.839" x="6.081" y="22.256"/><path d="m10.018 24.226h111.9a1.97 1.97 0 0 0 -1.969-1.971h-111.9a1.97 1.97 0 0 0 -1.969 1.971v64.674a1.97 1.97 0 0 0 1.969 1.971v-64.671a1.97 1.97 0 0 1 1.969-1.974z" fill="#a99be0"/><path d="m75.508 101.712h-23.016l-6.703 25.288h36.422zm-11.508 18.063a3.447 3.447 0 0 1 -3.445-3.448v-8.539a3.447 3.447 0 0 1 3.445-3.449 3.447 3.447 0 0 1 3.445 3.448v8.539a3.447 3.447 0 0 1 -3.445 3.449z" fill="#e678a0"/><path d="m75.508 101.712h-23.016l-6.703 25.288h36.422zm-11.508 18.063a3.447 3.447 0 0 1 -3.445-3.448v-8.539a3.447 3.447 0 0 1 3.445-3.449 3.447 3.447 0 0 1 3.445 3.448v8.539a3.447 3.447 0 0 1 -3.445 3.449z" fill="#e678a0"/><path d="m99.782 127h-71.564v-2.63a2.953 2.953 0 0 1 2.953-2.953h65.658a2.953 2.953 0 0 1 2.953 2.953z" fill="#e678a0"/><path d="m30.165 126.322a2.954 2.954 0 0 1 2.953-2.956h65.659a2.917 2.917 0 0 1 .862.143 2.944 2.944 0 0 0 -2.81-2.092h-65.658a2.954 2.954 0 0 0 -2.953 2.956v2.627h1.948z" fill="#fa8cb4"/><path d="m78.25 112.057-2.742-10.345h-23.016l-2.742 10.345h10.8v-4.269a3.445 3.445 0 1 1 6.891 0v4.269z" fill="#d2648c"/><path d="m121.919 50.459h-18.961-6.733v6.733 33.698h6.733v-33.698h18.961z" fill="#a99be0"/><path d="m84.987 17.33v-10.711a5.619 5.619 0 0 1 5.619-5.619h-78.906a5.619 5.619 0 0 0 -5.619 5.619v10.711z" fill="#dcdcd2"/><path d="m90.606 1h-78.906a5.619 5.619 0 0 1 5.619 5.619c0 .145-.011.288-.022.43h.022v83.857h78.906v-84.287a5.619 5.619 0 0 0 -5.619-5.619z" fill="#fffffa"/><path d="m96.225 12.6h-14.473a2.074 2.074 0 0 0 -2.074 2.074v40.449a2.069 2.069 0 0 0 2.069 2.069h14.478z" fill="#f0f0e6"/><path d="m23.865 14.052h44.088v6.555h-44.088z" fill="#b4aaf0"/><path d="m66.669 46.392a2.86 2.86 0 0 0 -4.044 0l-.633.633-1.386 1.386-25.3 25.3-7.116 7.2 11.16-3.155 25.3-25.3 1.386-1.386.633-.633a2.86 2.86 0 0 0 0-4.045z" fill="#f0f0e6"/><path d="m30.1 58.228h35.773v5.72h-35.773z" fill="#ffe885" transform="matrix(.707 -.707 .707 .707 -29.141 51.824)"/><path d="m28.707 58.806h35.773v1.779h-35.773z" fill="#fffa96" transform="matrix(.707 -.707 .707 .707 -28.564 50.431)"/><path d="m31.493 61.592h35.773v1.779h-35.773z" fill="#f0dc78" transform="matrix(.707 -.707 .707 .707 -29.718 53.217)"/><path d="m64.676 44.4a2.86 2.86 0 0 0 -4.044 0l-2.019 2.019 4.044 4.044 2.019-2.019a2.86 2.86 0 0 0 0-4.044z" fill="#e678a0"/><path d="m61.4 49.2 2.913-2.913c.545-.545.978-1.022.569-1.642a2.85 2.85 0 0 1 -.2 3.794l-2.019 2.019z" fill="#d2648c"/><path d="m62.784 44.763-2.913 2.913-1.258-1.258 2.019-2.018a2.85 2.85 0 0 1 3.794-.2c-.62-.414-1.097.018-1.642.563z" fill="#fa8cb4"/><path d="m33.317 71.714-5.123 9.192 9.167-5.148z" fill="#ffb4be"/><rect fill="#ffe885" height="44.596" rx="2.95" width="52.5" x="74.5" y="5.864"/><path d="m127 22.193h-52.5v-13.376a2.953 2.953 0 0 1 2.953-2.953h46.594a2.953 2.953 0 0 1 2.953 2.953z" fill="#aad2ff"/><path d="m77.247 11.564a2.953 2.953 0 0 1 2.953-2.953h46.594c.064 0 .137.015.2.019a2.957 2.957 0 0 0 -2.947-2.766h-46.597a2.95 2.95 0 0 0 -2.95 2.95v13.38h2.747z" fill="#bee6ff"/><circle cx="82.157" cy="15.707" fill="#96bef0" r="2"/><circle cx="90.157" cy="15.707" fill="#96bef0" r="2"/><circle cx="98.157" cy="15.707" fill="#96bef0" r="2"/><circle cx="82.157" cy="14.916" fill="#e678a0" r="2"/><circle cx="90.157" cy="14.916" fill="#f0dc78" r="2"/><circle cx="98.157" cy="14.916" fill="#8d7bd4" r="2"/><g fill="#785ae6"><path d="m124.047 102.734h-120.094a3.958 3.958 0 0 1 -3.953-3.953v-78.5a3.958 3.958 0 0 1 3.953-3.953h10.672a1 1 0 0 1 0 2h-10.672a1.955 1.955 0 0 0 -1.953 1.954v78.5a1.955 1.955 0 0 0 1.953 1.953h120.094a1.955 1.955 0 0 0 1.953-1.954v-50.391a1 1 0 0 1 2 0v50.391a3.958 3.958 0 0 1 -3.953 3.953z"/><path d="m113.2 91.906h-105.151a2.972 2.972 0 0 1 -2.969-2.969v-29.859a1 1 0 0 1 2 0v29.86a.97.97 0 0 0 .969.969h105.151a1 1 0 0 1 0 2z"/><path d="m119.95 91.906a1 1 0 0 1 0-2 .97.97 0 0 0 .969-.969v-31.745a1 1 0 1 1 2 0v31.746a2.972 2.972 0 0 1 -2.969 2.968z"/><path d="m80.6 121.922a1 1 0 0 1 -.966-.743l-4.894-18.444h-21.478l-4.162 15.676a1 1 0 0 1 -1.934-.514l4.356-16.42a1 1 0 0 1 .967-.743h23.019a1 1 0 0 1 .967.743l5.091 19.188a1 1 0 0 1 -.71 1.224 1.021 1.021 0 0 1 -.256.033zm-16.6-1.141a4.45 4.45 0 0 1 -4.445-4.445v-8.536a4.445 4.445 0 0 1 8.891 0v8.531a4.45 4.45 0 0 1 -4.446 4.45zm0-15.422a2.448 2.448 0 0 0 -2.445 2.445v8.531a2.445 2.445 0 0 0 4.891 0v-8.535a2.448 2.448 0 0 0 -2.446-2.441z"/><path d="m99.782 128h-71.564a1 1 0 0 1 -1-1v-2.625a3.958 3.958 0 0 1 3.953-3.953h5.1a1 1 0 0 1 0 2h-5.1a1.955 1.955 0 0 0 -1.953 1.953v1.625h69.564v-1.625a1.955 1.955 0 0 0 -1.953-1.953h-52.516a1 1 0 0 1 0-2h52.516a3.958 3.958 0 0 1 3.953 3.953v2.625a1 1 0 0 1 -1 1z"/><path d="m6.081 51.547a1 1 0 0 1 -1-1v-26.327a2.972 2.972 0 0 1 2.969-2.969h4.765a1 1 0 0 1 0 2h-4.766a.97.97 0 0 0 -.969.969v26.327a1 1 0 0 1 -.999 1z"/><path d="m17.319 18.329h-11.238a1 1 0 0 1 -1-1v-10.71a6.619 6.619 0 0 1 13.238 0c0 .1 0 .2-.01.294a.98.98 0 0 1 .01.137v10.279a1 1 0 0 1 -1 1zm-10.238-2h9.238v-9.073a.986.986 0 0 1 -.019-.281c.009-.117.019-.235.019-.355a4.619 4.619 0 0 0 -9.238 0z"/><path d="m96.226 91.906h-78.907a1 1 0 0 1 -1-1v-83.664a.951.951 0 0 1 -.019-.269c.009-.119.019-.235.019-.354a4.625 4.625 0 0 0 -4.619-4.619 1 1 0 0 1 0-2h78.906a6.635 6.635 0 0 1 6.554 5.729 1 1 0 0 1 -.991 1.134h-18.719a1.953 1.953 0 0 0 -1.95 1.95v38.7a1.953 1.953 0 0 0 1.95 1.95h18.75a1 1 0 0 1 1 1l.027 40.447a1 1 0 0 1 -1 1zm-77.907-2h76.906l-.025-38.447h-17.75a3.955 3.955 0 0 1 -3.95-3.95v-38.696a3.955 3.955 0 0 1 3.95-3.95h17.423a4.632 4.632 0 0 0 -4.267-2.863h-74.169a6.6 6.6 0 0 1 1.882 4.619c0 .1 0 .2-.01.293a.98.98 0 0 1 .01.137z"/><path d="m124.05 51.459h-46.6a3.955 3.955 0 0 1 -3.95-3.95v-38.696a3.955 3.955 0 0 1 3.95-3.95h46.6a3.955 3.955 0 0 1 3.95 3.95v38.7a3.955 3.955 0 0 1 -3.95 3.946zm-46.6-44.6a1.953 1.953 0 0 0 -1.95 1.95v38.7a1.953 1.953 0 0 0 1.95 1.95h46.6a1.953 1.953 0 0 0 1.95-1.95v-38.696a1.953 1.953 0 0 0 -1.95-1.95z"/><path d="m127 23.193h-52.5a1 1 0 0 1 -1-1v-13.377a3.958 3.958 0 0 1 3.953-3.953h46.594a3.958 3.958 0 0 1 3.953 3.953v13.377a1 1 0 0 1 -1 1zm-51.5-2h50.5v-12.377a1.955 1.955 0 0 0 -1.953-1.953h-46.594a1.955 1.955 0 0 0 -1.953 1.953z"/><path d="m79.679 66.229h-31.789a1 1 0 0 1 0-2h31.789a1 1 0 0 1 0 2z"/><path d="m39.8 66.229h-15.935a1 1 0 0 1 0-2h15.935a1 1 0 0 1 0 2z"/><path d="m79.679 74.707h-40.266a1 1 0 0 1 0-2h40.266a1 1 0 0 1 0 2z"/><path d="m32.206 74.707h-8.341a1 1 0 0 1 0-2h8.341a1 1 0 0 1 0 2z"/><path d="m74.5 49.878h-10.259a1 1 0 0 1 0-2h10.259a1 1 0 0 1 0 2z"/><path d="m56.152 49.878h-32.287a1 1 0 0 1 0-2h32.287a1 1 0 0 1 0 2z"/><path d="m47.675 58.355h-23.81a1 1 0 0 1 0-2h23.81a1 1 0 0 1 0 2z"/><path d="m79.679 58.355h-23.915a1 1 0 0 1 0-2h23.915a1 1 0 0 1 0 2z"/><path d="m74.5 32.838h-50.635a1 1 0 0 1 0-2h50.635a1 1 0 1 1 0 2z"/><path d="m74.5 41.315h-50.635a1 1 0 0 1 0-2h50.635a1 1 0 0 1 0 2z"/><path d="m79.679 81.906h-51.49a1 1 0 1 1 0-2h51.49a1 1 0 0 1 0 2z"/><path d="m37.361 76.758a1 1 0 0 1 -.707-.293l-4.044-4.044a1 1 0 0 1 0-1.414l25.3-25.3a1 1 0 0 1 .707-.293 1 1 0 0 1 .707.293l4.044 4.045a1 1 0 0 1 0 1.414l-6.893 6.893a1 1 0 0 1 -1.414-1.414l6.186-6.186-2.63-2.631-23.886 23.886 2.63 2.63 14.182-14.182a1 1 0 0 1 1.414 1.414l-14.889 14.889a1 1 0 0 1 -.707.293z"/><path d="m62.657 51.463a1 1 0 0 1 -.707-.293l-4.044-4.045a1 1 0 0 1 0-1.414l2.02-2.019a3.951 3.951 0 0 1 5.459 0 3.859 3.859 0 0 1 0 5.458l-2.019 2.02a1 1 0 0 1 -.709.293zm-2.63-5.045 2.63 2.631 1.313-1.312a1.86 1.86 0 0 0 0-2.63 1.9 1.9 0 0 0 -2.63 0z"/><path d="m28.195 81.906a1 1 0 0 1 -.874-1.486l5.123-9.192a1 1 0 0 1 .735-.5.984.984 0 0 1 .845.283l4.044 4.044a1 1 0 0 1 -.217 1.579l-9.167 5.148a1 1 0 0 1 -.489.124zm5.351-8.549-2.755 4.943 4.93-2.769z"/><path d="m67.953 21.606h-44.088a1 1 0 0 1 -1-1v-6.553a1 1 0 0 1 1-1h44.088a1 1 0 0 1 1 1v6.554a1 1 0 0 1 -1 .999zm-43.088-2h42.088v-4.553h-42.088z"/><path d="m120.883 32.838h-40.266a1 1 0 1 1 0-2h40.266a1 1 0 0 1 0 2z"/><path d="m120.883 41.315h-40.266a1 1 0 0 1 0-2h40.266a1 1 0 0 1 0 2z"/></g></svg>